<svg width="16" height="16" viewBox="0 0 16 16" fill="none" xmlns="http://www.w3.org/2000/svg">
<path d="M1.66666 14.3334L5.36617 12.9105C5.6028 12.8195 5.72111 12.774 5.8318 12.7146C5.93012 12.6618 6.02386 12.6009 6.11202 12.5324C6.21127 12.4554 6.30091 12.3658 6.48018 12.1865L14 4.66671C14.7364 3.93033 14.7364 2.73642 14 2.00004C13.2636 1.26366 12.0697 1.26366 11.3333 2.00004L3.81351 9.51985C3.63424 9.69912 3.54461 9.78876 3.46758 9.88801C3.39917 9.97617 3.33826 10.0699 3.28548 10.1682C3.22606 10.2789 3.18056 10.3972 3.08954 10.6339L1.66666 14.3334ZM1.66666 14.3334L3.03874 10.766C3.13692 10.5107 3.18601 10.3831 3.27022 10.3246C3.3438 10.2735 3.43486 10.2542 3.52285 10.271C3.62355 10.2902 3.72025 10.3869 3.91365 10.5803L5.41971 12.0864C5.61311 12.2798 5.70981 12.3765 5.72903 12.4772C5.74584 12.5652 5.72651 12.6562 5.67542 12.7298C5.61695 12.814 5.48932 12.8631 5.23404 12.9613L1.66666 14.3334Z" stroke="white" stroke-opacity="0.5" stroke-width="1.3" stroke-linecap="round" stroke-linejoin="round"/>
</svg>
